# xmcd CD database file
# Copyright (C) 1997 Ti Kan
# 
# Track frame offsets:
#     182
#     14142
#     25417
#     41830
#     61262
#     74807
#     91235
#     108590
#     126562
#     144340
#     156192
#     166897
#     186247
#     204057
# 
# Disc length: 2864 seconds
# 
# Revision: 1
# Processed by: cddbd v1.4b41PL1 Copyright (c) Steve Scherf et al.
# Submitted via: DiscPlay 4.0.3
# 
DISCID=cd0b2e0e
DTITLE=Various Artist - Rock Your Boots Off
DYEAR=1900
DGENRE=
TTITLE0=Little Sister
TTITLE1=Don't Be Cruel
TTITLE2=Stand By Me
TTITLE3=Cry
TTITLE4=Tell It Like It Is
TTITLE5=What Kind of Fool Do You Think I Am?
TTITLE6=Save The Last Dance For Me
TTITLE7=It's Just a Matter Of Time
TTITLE8=Blue Bayou
TTITLE9=I Go To Peices
TTITLE10=Mister Sandman
TTITLE11=Since I Don't Have You
TTITLE12=Sincerely
TTITLE13=I Fought The Law
EXTD=
EXTT0=
EXTT1=
EXTT2=
EXTT3=
EXTT4=
EXTT5=
EXTT6=
EXTT7=
EXTT8=
EXTT9=
EXTT10=
EXTT11=
EXTT12=
EXTT13=
PLAYORDER=
